<svg xmlns="http://www.w3.org/2000/svg" viewBox="0 0 1615.2 1001.39"><defs><style>.cls-1{fill:#fff;}</style></defs><g id="spółdzielnia_socjalna" data-name="spółdzielnia socjalna"><path class="cls-1" d="M593.32,771.65h47l-18.56-64.8h-9Z"/><path class="cls-1" d="M1058.25,709.4l2-2.55h-2Z"/><path class="cls-1" d="M613.26,706.63h8L617.35,693Z"/><path class="cls-1" d="M986.51,338.19A56.11,56.11,0,0,0,968,323.26q-11.12-5.64-26-5.64-15.28,0-26.39,5.82a54.29,54.29,0,0,0-18.39,15.48,65.35,65.35,0,0,0-10.74,21.84,90.9,90.9,0,0,0-3.46,24.94A87.92,87.92,0,0,0,886.57,411a66.18,66.18,0,0,0,10.93,21.66A55,55,0,0,0,915.88,448q11.1,5.84,26.4,5.83t26.58-6a53.79,53.79,0,0,0,18.38-15.66,67.29,67.29,0,0,0,10.56-22,92.79,92.79,0,0,0,3.46-25.13,88.25,88.25,0,0,0-3.64-25.3A62.34,62.34,0,0,0,986.51,338.19Z"/><path class="cls-1" d="M1174.57,457.3h55.21L1174.57,389Z"/><path class="cls-1" d="M8.58,204.75V957.27H1607.11V204.75ZM13.8,457.3H48.72L164.6,319.43H49.18V257.54H246.52v52.79L132.92,454.14H248.7v3.16h33.86V257.54h71V457.3H398V257.54H578.92v61.89H469v36.41H562.9v57.53H469v40.77H582.2v3.16h33.13V257.54h71v196.6H803.56v3.16h28a135.92,135.92,0,0,1-11.22-22.09,130,130,0,0,1-9.47-48.79,127,127,0,0,1,9.83-49.15,130.64,130.64,0,0,1,27.49-41.69A134.09,134.09,0,0,1,890,266.82q24.21-10.74,53-10.74,29.49,0,53.52,11.29a130.9,130.9,0,0,1,41.14,29.85,134.13,134.13,0,0,1,26.4,42.24,131.52,131.52,0,0,1,9.28,48.42,125.67,125.67,0,0,1-9.83,49,134.91,134.91,0,0,1-10.7,20.45h50.75V257.54h55.34L1262.68,389V257.54h71V457.3h44.42V257.54h181v61.89h-110v36.41H1543v57.53h-93.93v40.77h113.23v3.16h39.58l2.79,0a7.12,7.12,0,0,1-1.24.17c-2.09.08-4.18.08-6.26.08h-34.87v57.07H1378.09V457.52h-44.42v57.07h-56.43l-46.12-57.07h-56.55v57.07h-71V457.52h-51.79a132.3,132.3,0,0,1-15.57,19.39,134.37,134.37,0,0,1-41.69,28.94q-24.21,10.92-53,10.92-29.49,0-53.52-11.28a132.22,132.22,0,0,1-41.14-29.68,133.86,133.86,0,0,1-14.27-18.29H803.56v57.07H615.33V457.52H582.2v57.07H398V457.52H353.56v57.07h-71V457.52H248.7v57.07h-205V461.8l3.6-4.28H18.49c-2.08,0-4.17,0-6.26-.08a6.88,6.88,0,0,1-1.23-.17Zm220.53,79.52-36,63.35L154.6,588.52l18.2-51.7ZM1601.55,705.4H1424.88V708h93.94v57.52h-93.94v40.78h113.23v61.89H1353.88V705.4h-44.41V868.14h-71V705.4h-99.16l-16.25,20,100.49,142.72H1142l-64.08-95-19.66,20.39v74.63h-71V705.4H866.43c3.64,1.11,7.49,2.31,11.6,3.64a264.81,264.81,0,0,1,32.22,12,100,100,0,0,1,24.58,15.48,59.69,59.69,0,0,1,15.66,21.66Q956,770.94,956,789.14q0,23.29-8.56,39.14a70.2,70.2,0,0,1-22.57,25.3,95.21,95.21,0,0,1-31.68,13.65,153.45,153.45,0,0,1-35.49,4.19,201.93,201.93,0,0,1-29.13-2.18,253.23,253.23,0,0,1-29.68-6.19,259.55,259.55,0,0,1-28.39-9.47,181.43,181.43,0,0,1-25.31-12.38l30.58-62.26a214.14,214.14,0,0,0,26.58,14.2A188.44,188.44,0,0,0,828.7,803a104.93,104.93,0,0,0,30,4.37q11.64,0,16.2-3.09a9.49,9.49,0,0,0,4.55-8.2,11.72,11.72,0,0,0-4.55-9.28A41.86,41.86,0,0,0,862.38,780q-8-2.89-18.39-5.82t-22-6.92a189.92,189.92,0,0,1-29.49-12.56,80.11,80.11,0,0,1-20.39-15.29A54.62,54.62,0,0,1,760.25,720,67.83,67.83,0,0,1,757,705.4H682.93l56.39,162.74q-12.75,7.29-19.48,14.75t-6.74,13.65q0,6.19,6.19,9.83t19.3,3.64l-12.74,36.41Q697.44,943.15,684,933T670.5,910q0-10.56,7.83-21.48t23.49-20.39H667.23l-15.66-50.6H582.76l-15.29,50.6H495L551.63,705.4H376V806.25H493.2v61.89H305V705.4H184.14c3.64,1.11,7.49,2.31,11.6,3.64a264.81,264.81,0,0,1,32.22,12,100,100,0,0,1,24.58,15.48,59.66,59.66,0,0,1,15.65,21.66q5.46,12.75,5.47,30.95,0,23.29-8.56,39.14a70.29,70.29,0,0,1-22.57,25.3,95.21,95.21,0,0,1-31.68,13.65,153.53,153.53,0,0,1-35.5,4.19,202,202,0,0,1-29.13-2.18,253.5,253.5,0,0,1-29.67-6.19,259.72,259.72,0,0,1-28.4-9.47,181.3,181.3,0,0,1-25.3-12.38l30.58-62.26A213.44,213.44,0,0,0,120,793.14a188.44,188.44,0,0,0,26.4,9.83,104.91,104.91,0,0,0,30,4.37q11.66,0,16.21-3.09a9.49,9.49,0,0,0,4.55-8.2,11.72,11.72,0,0,0-4.55-9.28A42,42,0,0,0,180.09,780q-8-2.89-18.39-5.82t-22-6.92a189.92,189.92,0,0,1-29.49-12.56,80.11,80.11,0,0,1-20.39-15.29A54.62,54.62,0,0,1,78,720a67.24,67.24,0,0,1-3.24-14.56H14.15c-1.06,0-2.11,0-3.17,0a7.22,7.22,0,0,1,1.26-.18c2.09-.08,4.18-.07,6.27-.07h56q-.4-4.27-.41-8.89,0-21.48,7.82-37.87a77.77,77.77,0,0,1,21.3-27.3A95.29,95.29,0,0,1,134,614.55a117.21,117.21,0,0,1,36.59-5.64,138.94,138.94,0,0,1,27.67,2.73,221.19,221.19,0,0,1,26,6.92,248.67,248.67,0,0,1,23.49,9.1q10.92,4.9,19.66,9.28l-30.59,58.62a198.93,198.93,0,0,0-22.57-11.65,207.13,207.13,0,0,0-22-8.19,79.46,79.46,0,0,0-23.85-3.83q-9.47,0-15.11,2.92t-5.64,9.83A11.3,11.3,0,0,0,151,693a30.8,30.8,0,0,0,9.46,6,119.06,119.06,0,0,0,15.11,5.28l3,.88H305V611.09h71v94.09H552.21l32.73-94.09h64.81l32.6,94.09h74.5c-.27-2.85-.42-5.81-.42-8.89q0-21.48,7.83-37.87a77.54,77.54,0,0,1,21.3-27.3,95.14,95.14,0,0,1,30.76-16.57,117.25,117.25,0,0,1,36.59-5.64,138.94,138.94,0,0,1,27.67,2.73,221.88,221.88,0,0,1,26,6.92,248.45,248.45,0,0,1,23.48,9.1q10.92,4.9,19.66,9.28l-30.58,58.62a199.07,199.07,0,0,0-22.58-11.65,207.74,207.74,0,0,0-22-8.19,79.56,79.56,0,0,0-23.85-3.83q-9.48,0-15.11,2.92T830,684.64a11.34,11.34,0,0,0,3.28,8.37,30.86,30.86,0,0,0,9.47,6,118.5,118.5,0,0,0,15.11,5.28l3,.88H987.25V611.09h71v94.09h3.38l75.27-94.09H1217l-76.34,94.09h97.81V611.09h71v94.09h44.41V611.09h181V673h-110v32.19h172.31c2.08,0,4.17,0,6.26.07a7.22,7.22,0,0,1,1.26.18Z"/><path class="cls-1" d="M90.14,97.72A69,69,0,0,0,75.08,91a26.88,26.88,0,0,0-8-1.29,11.26,11.26,0,0,0-5.1,1A3.44,3.44,0,0,0,60,94a3.83,3.83,0,0,0,1.11,2.83,10.45,10.45,0,0,0,3.19,2,41.1,41.1,0,0,0,5.1,1.78c2,.58,4.29,1.27,6.83,2.09a89.24,89.24,0,0,1,10.88,4.06,34.08,34.08,0,0,1,8.3,5.22,20.18,20.18,0,0,1,5.28,7.32,26.47,26.47,0,0,1,1.85,10.45A27.57,27.57,0,0,1,99.67,143,23.67,23.67,0,0,1,92,151.57a32.13,32.13,0,0,1-10.69,4.61,52,52,0,0,1-12,1.41,68.14,68.14,0,0,1-9.83-.74,83.36,83.36,0,0,1-10-2.09,86.91,86.91,0,0,1-9.59-3.19,62.17,62.17,0,0,1-8.54-4.18l10.32-21a70.87,70.87,0,0,0,9,4.8,62.92,62.92,0,0,0,8.91,3.32A35.64,35.64,0,0,0,69.73,136c2.62,0,4.45-.34,5.47-1a3.2,3.2,0,0,0,1.54-2.77A3.93,3.93,0,0,0,75.2,129,14.14,14.14,0,0,0,71,126.73c-1.8-.65-3.87-1.31-6.21-2s-4.81-1.44-7.43-2.34a63.25,63.25,0,0,1-10-4.24A27.32,27.32,0,0,1,40.47,113a18.5,18.5,0,0,1-4-6.58A25.66,25.66,0,0,1,35.19,98a29.37,29.37,0,0,1,2.64-12.79A26.25,26.25,0,0,1,45,76a32.15,32.15,0,0,1,10.39-5.59,39.58,39.58,0,0,1,12.36-1.91,46.52,46.52,0,0,1,9.34.93,74.52,74.52,0,0,1,8.79,2.33c2.83.94,5.47,2,7.93,3.07s4.67,2.16,6.64,3.14Z"/><path class="cls-1" d="M113.13,156.48V69.2h37.61a26.6,26.6,0,0,1,11.81,2.64,30.79,30.79,0,0,1,9.28,6.89,32.05,32.05,0,0,1,6.08,9.71,29,29,0,0,1,2.22,11A31.29,31.29,0,0,1,178,110.69a31.68,31.68,0,0,1-5.84,9.71,27.69,27.69,0,0,1-9.1,6.76,27.21,27.21,0,0,1-11.74,2.52H137.1v26.8Zm24-47.69h12.66a5.62,5.62,0,0,0,4.12-2q1.91-2,1.9-7.32c0-3.6-.73-6.06-2.21-7.37a6.71,6.71,0,0,0-4.42-2H137.1Z"/><path class="cls-1" d="M229.05,157.22A42,42,0,0,1,211,153.41a44.64,44.64,0,0,1-13.89-10,45.42,45.42,0,0,1-9-14.2,44,44,0,0,1-3.19-16.47,42.74,42.74,0,0,1,3.32-16.6,43.91,43.91,0,0,1,9.28-14.07,44.91,44.91,0,0,1,14.14-9.71,43.56,43.56,0,0,1,17.88-3.63,42,42,0,0,1,18.07,3.81,44.33,44.33,0,0,1,13.9,10.08,45.23,45.23,0,0,1,8.91,14.26,44.42,44.42,0,0,1,3.13,16.35,42.3,42.3,0,0,1-3.32,16.54,44.71,44.71,0,0,1-9.22,14,45.24,45.24,0,0,1-14.07,9.77A43,43,0,0,1,229.05,157.22ZM209.26,113a29.69,29.69,0,0,0,1.23,8.54,22.28,22.28,0,0,0,3.69,7.31,18.41,18.41,0,0,0,6.2,5.17,21.1,21.1,0,0,0,17.89-.06,18.32,18.32,0,0,0,6.21-5.29A22.69,22.69,0,0,0,248,121.2a31.26,31.26,0,0,0,1.17-8.48,29.64,29.64,0,0,0-1.23-8.54,21.05,21.05,0,0,0-3.75-7.26,18.92,18.92,0,0,0-6.27-5,19.17,19.17,0,0,0-8.79-1.9,19,19,0,0,0-8.91,2,18.47,18.47,0,0,0-6.21,5.23,22,22,0,0,0-3.62,7.37A30.75,30.75,0,0,0,209.26,113Zm28.4-47.46L222.9,61.58l6.15-17.46h20.78Z"/><path class="cls-1" d="M285.23,156.48v-33.8l-5.78,2.82-5.28-12.41,11.06-5.41V69.2h24V96l8.73-4.3,5.29,12.41-14,6.89v24.58h39.59v20.9Z"/><path class="cls-1" d="M357.14,156.48V69.2h33.57a49.17,49.17,0,0,1,19.05,3.44,38.39,38.39,0,0,1,22.13,23.18,50,50,0,0,1,2.83,16.9,49.29,49.29,0,0,1-3.14,18,39,39,0,0,1-8.91,13.77,39.92,39.92,0,0,1-13.89,8.85,49.81,49.81,0,0,1-18.07,3.13Zm53.24-43.76A29.89,29.89,0,0,0,409,103.5a20.56,20.56,0,0,0-3.87-7.13,17.47,17.47,0,0,0-6.21-4.61,19.77,19.77,0,0,0-8.23-1.66h-9.59v45.48h9.59a19.45,19.45,0,0,0,8.35-1.72,17.35,17.35,0,0,0,6.21-4.79,21.17,21.17,0,0,0,3.81-7.25A30.74,30.74,0,0,0,410.38,112.72Z"/><path class="cls-1" d="M439.88,138.66,480.69,90.1h-39V69.2h66.63V87L470,135.58h39.09v20.9H439.88Z"/><path class="cls-1" d="M520.52,156.48V69.2h24v87.28Z"/><path class="cls-1" d="M621.7,135.58v20.9H559.49V69.2h61.1V90.1H583.46v12.29h31.72v19.43H583.46v13.76Z"/><path class="cls-1" d="M632.88,156.48V69.2h24v66.38h39.59v20.9Z"/><path class="cls-1" d="M728.77,113.58v42.9h-24V69.2h18.69l35,44.38V69.2h24v87.28H763.43Z"/><path class="cls-1" d="M797.49,156.48V69.2h24v87.28Z"/><path class="cls-1" d="M859.07,69.2H881l30.24,87.28H886.86l-5.29-17.08H858.34l-5.17,17.08H828.71Zm18.69,54.21-7.74-27-8.12,27Z"/><path class="cls-1" d="M995.28,97.72a68.56,68.56,0,0,0-7.62-3.93A67.65,67.65,0,0,0,980.22,91a26.83,26.83,0,0,0-8.05-1.29,11.26,11.26,0,0,0-5.1,1A3.45,3.45,0,0,0,965.16,94a3.83,3.83,0,0,0,1.11,2.83,10.51,10.51,0,0,0,3.2,2,40,40,0,0,0,5.1,1.78c2,.58,4.28,1.27,6.82,2.09a88.62,88.62,0,0,1,10.88,4.06,33.89,33.89,0,0,1,8.3,5.22,20.2,20.2,0,0,1,5.29,7.32,26.66,26.66,0,0,1,1.84,10.45,27.57,27.57,0,0,1-2.89,13.21,23.74,23.74,0,0,1-7.62,8.55,32.18,32.18,0,0,1-10.7,4.61,51.87,51.87,0,0,1-12,1.41,68.17,68.17,0,0,1-9.84-.74,83.36,83.36,0,0,1-10-2.09,87.62,87.62,0,0,1-9.59-3.19,62.17,62.17,0,0,1-8.54-4.18l10.33-21a70.75,70.75,0,0,0,9,4.8,63.39,63.39,0,0,0,8.91,3.32A35.65,35.65,0,0,0,974.88,136c2.62,0,4.44-.34,5.47-1a3.21,3.21,0,0,0,1.53-2.77,4,4,0,0,0-1.53-3.13,14.27,14.27,0,0,0-4.24-2.28c-1.81-.65-3.88-1.31-6.21-2s-4.82-1.44-7.44-2.34a64.07,64.07,0,0,1-10-4.24,27.08,27.08,0,0,1-6.88-5.16,18.39,18.39,0,0,1-4-6.58A25.66,25.66,0,0,1,940.33,98,29.37,29.37,0,0,1,943,85.18a26.27,26.27,0,0,1,7.2-9.22,32.1,32.1,0,0,1,10.38-5.59,39.62,39.62,0,0,1,12.36-1.91,46.45,46.45,0,0,1,9.34.93A74.52,74.52,0,0,1,991,71.72c2.83.94,5.47,2,7.93,3.07s4.67,2.16,6.64,3.14Z"/><path class="cls-1" d="M1057.61,157.22a42,42,0,0,1-18.07-3.81,44.64,44.64,0,0,1-13.89-10,45.24,45.24,0,0,1-9-14.2,44,44,0,0,1-3.19-16.47,42.92,42.92,0,0,1,3.31-16.6,44.1,44.1,0,0,1,9.29-14.07,45,45,0,0,1,14.13-9.71,43.61,43.61,0,0,1,17.89-3.63,42,42,0,0,1,18.07,3.81,44.17,44.17,0,0,1,13.89,10.08A45.26,45.26,0,0,1,1099,96.86a44.63,44.63,0,0,1,3.13,16.35,42.49,42.49,0,0,1-3.32,16.54,44.71,44.71,0,0,1-9.22,14,45.36,45.36,0,0,1-14.07,9.77A43,43,0,0,1,1057.61,157.22ZM1037.82,113a29.69,29.69,0,0,0,1.23,8.54,22.07,22.07,0,0,0,3.68,7.31,18.54,18.54,0,0,0,6.21,5.17,21.1,21.1,0,0,0,17.89-.06,18.32,18.32,0,0,0,6.21-5.29,22.89,22.89,0,0,0,3.56-7.44,31.26,31.26,0,0,0,1.17-8.48,29.64,29.64,0,0,0-1.23-8.54,21.05,21.05,0,0,0-3.75-7.26,18.92,18.92,0,0,0-6.27-5,19.17,19.17,0,0,0-8.79-1.9,19,19,0,0,0-8.91,2,18.47,18.47,0,0,0-6.21,5.23,22.17,22.17,0,0,0-3.63,7.37A30.74,30.74,0,0,0,1037.82,113Z"/><path class="cls-1" d="M1107.52,112.11a43.51,43.51,0,0,1,11.8-29.63,43.87,43.87,0,0,1,32.82-13.77q12.66,0,21.95,5.22a34.09,34.09,0,0,1,13.83,13.83l-18.32,13a15.26,15.26,0,0,0-3.26-5.28,16.7,16.7,0,0,0-4.48-3.32,19.37,19.37,0,0,0-5.11-1.72,27.65,27.65,0,0,0-5.1-.49,17.94,17.94,0,0,0-15.06,7.31,23,23,0,0,0-3.56,7.38,29.76,29.76,0,0,0-1.17,8.17,28.17,28.17,0,0,0,1.35,8.73,22.74,22.74,0,0,0,3.94,7.38,19.22,19.22,0,0,0,6.33,5.1,18.3,18.3,0,0,0,8.42,1.9,23.92,23.92,0,0,0,5-.55,18.84,18.84,0,0,0,5-1.84,16.8,16.8,0,0,0,4.3-3.32,14.8,14.8,0,0,0,3-5l19.55,11.68a24.93,24.93,0,0,1-6,8.6,38,38,0,0,1-9.1,6.39,47.77,47.77,0,0,1-10.94,3.94,50.5,50.5,0,0,1-11.37,1.35,40.49,40.49,0,0,1-17.77-3.87,44.85,44.85,0,0,1-13.89-10.27,46.67,46.67,0,0,1-9-14.5A44.42,44.42,0,0,1,1107.52,112.11Z"/><path class="cls-1" d="M1194.92,132.88a17.61,17.61,0,0,0,1.6.86,24,24,0,0,0,3.08,1.23,36.78,36.78,0,0,0,4.24,1.11,24.6,24.6,0,0,0,5,.49,13.19,13.19,0,0,0,6.14-1.23,8,8,0,0,0,3.57-4,22.47,22.47,0,0,0,1.6-7.13c.24-2.9.36-6.45.36-10.63V69.2h24v44.38a135.4,135.4,0,0,1-1.11,18.13,34.36,34.36,0,0,1-4.79,14,24.18,24.18,0,0,1-10.76,9q-7.07,3.2-19,3.2-11.07,0-18.94-5.41Z"/><path class="cls-1" d="M1278.89,69.2h21.88L1331,156.48h-24.34l-5.29-17.08h-23.23L1273,156.48h-24.47Zm18.68,54.21-7.74-27-8.12,27Z"/><path class="cls-1" d="M1338.26,156.48V69.2h24v66.38h39.59v20.9Z"/><path class="cls-1" d="M1434.15,113.58v42.9h-24V69.2h18.68l35,44.38V69.2h24v87.28h-19Z"/><path class="cls-1" d="M1525.49,69.2h21.88l30.24,87.28h-24.34L1548,139.4h-23.24l-5.16,17.08h-24.47Zm18.69,54.21-7.75-27-8.11,27Z"/></g></svg>