<svg xmlns="http://www.w3.org/2000/svg" viewBox="0 0 1615.2 1052.64"><defs><style>.cls-1{fill:#10834a;}.cls-2{fill:#3da643;}.cls-3{fill:#7fc537;}.cls-4{fill:#fff;}.cls-5{fill:#4ba277;}</style></defs><g id="Zielone"><path class="cls-1" d="M30.36,971.39V725.86a4.47,4.47,0,0,1,3.57-1.61c2-.08,4.07-.07,6.11-.07H1579.26c2,0,4.07,0,6.11.07a4.47,4.47,0,0,1,3.57,1.61V971.39c-1.17.64-2.44.32-3.66.32q-775.63,0-1551.27,0C32.8,971.71,31.53,972,30.36,971.39Z"/><path class="cls-2" d="M1588.94,725.86c-1.81,0-3.62-.05-5.42-.05H35.79c-1.81,0-3.62,0-5.43.05V481c1.7,0,3.39.06,5.09.07H1583.86c1.69,0,3.39,0,5.08-.06Z"/><path class="cls-3" d="M30.36,481V234.84H1588.94V481a4.47,4.47,0,0,1-3.57,1.61c-2,.08-4.07.08-6.11.08H40c-2,0-4.07,0-6.11-.08A4.45,4.45,0,0,1,30.36,481Z"/><path class="cls-4" d="M253,714.8a194.8,194.8,0,0,0-22-11.36,202.2,202.2,0,0,0-21.48-8,77.66,77.66,0,0,0-23.25-3.72q-9.24,0-14.73,2.84t-5.5,9.58a11.05,11.05,0,0,0,3.19,8.17,30.1,30.1,0,0,0,9.23,5.85,113.72,113.72,0,0,0,14.73,5.15q8.7,2.49,19.7,6a258.11,258.11,0,0,1,31.42,11.71,97.46,97.46,0,0,1,24,15.09,58.07,58.07,0,0,1,15.27,21.12q5.33,12.44,5.32,30.17,0,22.72-8.34,38.16a68.35,68.35,0,0,1-22,24.68,93,93,0,0,1-30.88,13.31A149.75,149.75,0,0,1,193,887.68a196,196,0,0,1-28.39-2.13,247.15,247.15,0,0,1-28.94-6A254.41,254.41,0,0,1,108,870.29a177.38,177.38,0,0,1-24.68-12.07l29.82-60.71A207.54,207.54,0,0,0,139,811.36a183.74,183.74,0,0,0,25.73,9.58A102.61,102.61,0,0,0,194,825.2q11.35,0,15.8-3a9.25,9.25,0,0,0,4.43-8,11.43,11.43,0,0,0-4.43-9.05,40.76,40.76,0,0,0-12.25-6.57q-7.82-2.83-17.93-5.68t-21.47-6.75a184.41,184.41,0,0,1-28.76-12.24A78.06,78.06,0,0,1,109.54,759,53.1,53.1,0,0,1,98,740a73.9,73.9,0,0,1-3.73-24.5q0-20.94,7.63-36.92A75.79,75.79,0,0,1,122.68,652a92.84,92.84,0,0,1,30-16.15,114.22,114.22,0,0,1,35.68-5.51,135.13,135.13,0,0,1,27,2.67,215.08,215.08,0,0,1,25.38,6.74,243.73,243.73,0,0,1,22.9,8.88q10.65,4.78,19.17,9Zm-37.63-93-42.6-11.36L190.48,560h60Z"/><path class="cls-4" d="M319.34,884.49v-252h69.22v191.7H502.87v60.35Z"/><path class="cls-4" d="M729.7,960.81q-27.69-3.19-40.82-13.14t-13.14-22.36q0-10.3,7.63-20.94t22.9-19.88H672.55l-15.27-49.35H590.19l-14.91,49.35H504.64l87.68-252h63.19l87.33,252q-12.44,7.1-19,14.37t-6.56,13.32c0,4,2,7.21,6,9.58s10.3,3.55,18.82,3.55ZM646.28,789,623.91,710.9,600.49,789Z"/><path class="cls-4" d="M918.2,714.8a194.8,194.8,0,0,0-22-11.36,202.2,202.2,0,0,0-21.48-8,77.66,77.66,0,0,0-23.25-3.72q-9.24,0-14.73,2.84t-5.5,9.58a11.05,11.05,0,0,0,3.19,8.17,30.1,30.1,0,0,0,9.23,5.85,113.72,113.72,0,0,0,14.73,5.15q8.7,2.49,19.7,6a258.11,258.11,0,0,1,31.42,11.71,97.27,97.27,0,0,1,24,15.09,58.07,58.07,0,0,1,15.27,21.12q5.32,12.44,5.32,30.17,0,22.72-8.34,38.16a68.35,68.35,0,0,1-22,24.68,93,93,0,0,1-30.88,13.31,149.66,149.66,0,0,1-34.61,4.08,195.9,195.9,0,0,1-28.4-2.13,246.56,246.56,0,0,1-28.93-6,253.86,253.86,0,0,1-27.69-9.23,177.93,177.93,0,0,1-24.68-12.07l29.82-60.71a207.54,207.54,0,0,0,25.92,13.85A183.74,183.74,0,0,0,830,820.94a102.61,102.61,0,0,0,29.29,4.26q11.36,0,15.8-3a9.25,9.25,0,0,0,4.43-8,11.43,11.43,0,0,0-4.43-9.05,40.76,40.76,0,0,0-12.25-6.57q-7.82-2.83-17.93-5.68t-21.47-6.75a184.83,184.83,0,0,1-28.76-12.24A78.06,78.06,0,0,1,774.78,759a53.24,53.24,0,0,1-11.53-19,73.9,73.9,0,0,1-3.73-24.5q0-20.94,7.63-36.92A75.79,75.79,0,0,1,787.92,652a92.79,92.79,0,0,1,30-16.15,114.11,114.11,0,0,1,35.67-5.51,135.13,135.13,0,0,1,27,2.67A215.08,215.08,0,0,1,906,639.72a243.73,243.73,0,0,1,22.9,8.88q10.65,4.78,19.17,9Z"/><path class="cls-4" d="M984.58,884.49v-252h69.22v95.85l76.68-95.85h78.1L1117,745.33l98,139.16h-79.51L1073,791.83l-19.17,19.88v72.78Z"/><path class="cls-4" d="M1229.51,884.49v-252h69.23v252Z"/><path class="cls-4" d="M1521.66,824.14v60.35H1342v-252h176.43v60.35H1411.26v35.5h91.59v56.09h-91.59v39.76Z"/><path class="cls-4" d="M64.62,486.88,182.48,346.66H70V286.31h192.4v51.48L151.6,478H264.48v60.34H64.62Z"/><path class="cls-4" d="M297.49,538.35v-252h69.23v252Z"/><path class="cls-4" d="M589.64,478v60.34H410v-252H586.45v60.35H479.24v35.5h91.59v56.09H479.24V478Z"/><path class="cls-4" d="M621.94,538.35v-252h69.23V478h114.3v60.34Z"/><path class="cls-4" d="M940,540.48q-28.75,0-52.18-11a129,129,0,0,1-40.11-28.93,130.93,130.93,0,0,1-25.92-41A127,127,0,0,1,812.57,412a123.83,123.83,0,0,1,9.59-47.93A127.17,127.17,0,0,1,849,323.41a130.73,130.73,0,0,1,40.82-28.05q23.61-10.46,51.65-10.47,28.76,0,52.19,11A127.83,127.83,0,0,1,1033.73,325a130.77,130.77,0,0,1,25.74,41.17,128.41,128.41,0,0,1,9,47.22,122.56,122.56,0,0,1-9.58,47.74,129.39,129.39,0,0,1-26.63,40.47,130.86,130.86,0,0,1-40.65,28.22Q968.05,540.48,940,540.48ZM882.86,412.69a85.67,85.67,0,0,0,3.55,24.67,64.26,64.26,0,0,0,10.65,21.12A53.6,53.6,0,0,0,915,473.39q10.82,5.69,25.73,5.68t25.92-5.86A52.54,52.54,0,0,0,984.57,458a65.78,65.78,0,0,0,10.29-21.48A90.49,90.49,0,0,0,998.23,412a86,86,0,0,0-3.55-24.67,60.93,60.93,0,0,0-10.83-20.95,54.69,54.69,0,0,0-18.1-14.55q-10.83-5.51-25.38-5.51-14.91,0-25.74,5.68a53,53,0,0,0-17.93,15.09,64.12,64.12,0,0,0-10.47,21.3A88.68,88.68,0,0,0,882.86,412.69Z"/><path class="cls-4" d="M1167.21,414.46V538.35H1098v-252h54l101.17,128.15V286.31h69.23v252h-55Z"/><path class="cls-4" d="M1545.27,478v60.34H1365.64v-252h176.43v60.35h-107.2v35.5h91.58v56.09h-91.58V478Z"/><path class="cls-5" d="M30.36,971.39H1588.94c-.15.2.34.7-.34.68-.9,0-1.81,0-2.71,0q-776.23,0-1552.47,0C32.42,972,31.11,972.8,30.36,971.39Z"/></g><g id="spółdzielnia_socjalna" data-name="spółdzielnia socjalna"><path class="cls-4" d="M108.31,132.51a64.42,64.42,0,0,0-7.43-3.84A67.07,67.07,0,0,0,93.63,126a26.14,26.14,0,0,0-7.85-1.26,10.85,10.85,0,0,0-5,1A3.35,3.35,0,0,0,79,128.91,3.74,3.74,0,0,0,80,131.67a10.17,10.17,0,0,0,3.11,2,39.16,39.16,0,0,0,5,1.74q2.92.84,6.65,2a87.71,87.71,0,0,1,10.61,4,33.36,33.36,0,0,1,8.09,5.09,19.77,19.77,0,0,1,5.15,7.13,25.84,25.84,0,0,1,1.8,10.19,26.83,26.83,0,0,1-2.82,12.89,23.05,23.05,0,0,1-7.43,8.33,31.06,31.06,0,0,1-10.43,4.49,50.38,50.38,0,0,1-11.68,1.38,66,66,0,0,1-9.59-.72A86.09,86.09,0,0,1,59.35,185,60.25,60.25,0,0,1,51,180.93l10.07-20.49a70.47,70.47,0,0,0,8.75,4.67,62,62,0,0,0,8.69,3.24,34.6,34.6,0,0,0,9.89,1.44q3.83,0,5.33-1a3.13,3.13,0,0,0,1.5-2.7,3.86,3.86,0,0,0-1.5-3.06,13.78,13.78,0,0,0-4.13-2.21q-2.64-1-6.06-1.92t-7.25-2.28a62.65,62.65,0,0,1-9.71-4.13,26.48,26.48,0,0,1-6.71-5A17.71,17.71,0,0,1,56,141a25,25,0,0,1-1.26-8.27,28.62,28.62,0,0,1,2.57-12.47,25.68,25.68,0,0,1,7-9,31.48,31.48,0,0,1,10.12-5.45,38.57,38.57,0,0,1,12-1.86,45.69,45.69,0,0,1,9.11.9,73.27,73.27,0,0,1,8.57,2.28,82,82,0,0,1,7.73,3c2.4,1.07,4.55,2.09,6.47,3Z"/><path class="cls-4" d="M130.73,189.8V104.7H167.4a25.84,25.84,0,0,1,11.51,2.58A29.83,29.83,0,0,1,188,114a31.24,31.24,0,0,1,5.93,9.47,28.39,28.39,0,0,1,2.16,10.73,31.25,31.25,0,0,1-7.73,20.43,27.1,27.1,0,0,1-8.87,6.6A26.64,26.64,0,0,1,168,163.67H154.1V189.8Zm23.37-46.5h12.35a5.47,5.47,0,0,0,4-2q1.86-2,1.86-7.13T170.16,127a6.55,6.55,0,0,0-4.31-1.92H154.1Z"/><path class="cls-4" d="M243.75,190.52a41.07,41.07,0,0,1-17.62-3.71,43.53,43.53,0,0,1-22.29-23.62,42.78,42.78,0,0,1-3.12-16.06A41.77,41.77,0,0,1,204,131a42.9,42.9,0,0,1,9-13.72,44.06,44.06,0,0,1,13.78-9.47,42.51,42.51,0,0,1,17.44-3.54,40.86,40.86,0,0,1,17.62,3.72,43.1,43.1,0,0,1,13.55,9.83,44.21,44.21,0,0,1,8.69,13.9,43.27,43.27,0,0,1,3.05,15.94,41.25,41.25,0,0,1-3.23,16.12,43.81,43.81,0,0,1-9,13.67,44.37,44.37,0,0,1-13.73,9.53A42,42,0,0,1,243.75,190.52Zm-19.29-43.15a28.88,28.88,0,0,0,1.2,8.33,21.47,21.47,0,0,0,3.59,7.13,18.25,18.25,0,0,0,6.05,5,20.47,20.47,0,0,0,17.44-.06,17.74,17.74,0,0,0,6.06-5.16,22,22,0,0,0,3.47-7.25,30.5,30.5,0,0,0,1.14-8.27,29,29,0,0,0-1.2-8.33,20.74,20.74,0,0,0-3.65-7.07,19.75,19.75,0,0,0-23.38-4.85,17.81,17.81,0,0,0-6.05,5.09,21.46,21.46,0,0,0-3.53,7.19A29.59,29.59,0,0,0,224.46,147.37Zm27.68-46.26-14.38-3.84,6-17H264Z"/><path class="cls-4" d="M298.53,189.8v-33l-5.63,2.76-5.16-12.11,10.79-5.27V104.7H321.9v26.13l8.51-4.19,5.16,12.1-13.67,6.71v24h38.6V189.8Z"/><path class="cls-4" d="M368.65,189.8V104.7h32.72A47.86,47.86,0,0,1,420,108.06a37.41,37.41,0,0,1,21.57,22.59,48.69,48.69,0,0,1,2.76,16.48,48,48,0,0,1-3.06,17.56,38,38,0,0,1-8.69,13.43A39,39,0,0,1,419,186.75a48.73,48.73,0,0,1-17.62,3.05Zm51.9-42.67a29.1,29.1,0,0,0-1.32-9,20.14,20.14,0,0,0-3.78-6.95,17,17,0,0,0-6.05-4.49,19.36,19.36,0,0,0-8-1.62H392v44.35h9.35a19.06,19.06,0,0,0,8.15-1.68,17,17,0,0,0,6.05-4.68,20.49,20.49,0,0,0,3.72-7.07A29.85,29.85,0,0,0,420.55,147.13Z"/><path class="cls-4" d="M449.31,172.42l39.8-47.34h-38V104.7h65v17.38l-37.4,47.35h38.11V189.8H449.31Z"/><path class="cls-4" d="M527.94,189.8V104.7h23.37v85.1Z"/><path class="cls-4" d="M626.59,169.43V189.8H565.94V104.7h59.57v20.38h-36.2v12h30.92V156H589.31v13.43Z"/><path class="cls-4" d="M637.49,189.8V104.7h23.37v64.73h38.6V189.8Z"/><path class="cls-4" d="M731,148V189.8H707.61V104.7h18.22L760,148V104.7h23.37v85.1H764.78Z"/><path class="cls-4" d="M798,189.8V104.7h23.38v85.1Z"/><path class="cls-4" d="M858,104.7h21.34l29.48,85.1H885.12L880,173.14H857.31l-5,16.66H828.42Zm18.22,52.86-7.55-26.37-7.91,26.37Z"/><path class="cls-4" d="M990.83,132.51a64.42,64.42,0,0,0-7.43-3.84,67.07,67.07,0,0,0-7.25-2.69,26.14,26.14,0,0,0-7.85-1.26,10.88,10.88,0,0,0-5,1,3.35,3.35,0,0,0-1.86,3.23,3.74,3.74,0,0,0,1.08,2.76,10.3,10.3,0,0,0,3.11,2,39.16,39.16,0,0,0,5,1.74c2,.56,4.17,1.24,6.65,2a87.08,87.08,0,0,1,10.61,4,33.36,33.36,0,0,1,8.09,5.09,19.65,19.65,0,0,1,5.15,7.13,25.84,25.84,0,0,1,1.8,10.19,26.83,26.83,0,0,1-2.82,12.89,23.05,23.05,0,0,1-7.43,8.33,31.1,31.1,0,0,1-10.42,4.49,50.53,50.53,0,0,1-11.69,1.38,66.13,66.13,0,0,1-9.59-.72A86.09,86.09,0,0,1,941.87,185a60.25,60.25,0,0,1-8.33-4.08l10.07-20.49a70.47,70.47,0,0,0,8.75,4.67,62,62,0,0,0,8.69,3.24,34.6,34.6,0,0,0,9.89,1.44q3.82,0,5.33-1a3.13,3.13,0,0,0,1.5-2.7,3.86,3.86,0,0,0-1.5-3.06,13.78,13.78,0,0,0-4.13-2.21q-2.64-1-6.06-1.92t-7.25-2.28a63.08,63.08,0,0,1-9.71-4.13,26.48,26.48,0,0,1-6.71-5,17.85,17.85,0,0,1-3.89-6.41,25,25,0,0,1-1.26-8.27,28.76,28.76,0,0,1,2.57-12.47,25.68,25.68,0,0,1,7-9A31.48,31.48,0,0,1,957,105.84,38.57,38.57,0,0,1,969,104a45.69,45.69,0,0,1,9.11.9,73.27,73.27,0,0,1,8.57,2.28,82,82,0,0,1,7.73,3q3.6,1.61,6.47,3Z"/><path class="cls-4" d="M1051.6,190.52a41.07,41.07,0,0,1-17.62-3.71,43.69,43.69,0,0,1-13.54-9.77,44.24,44.24,0,0,1-8.75-13.85,42.78,42.78,0,0,1-3.12-16.06,41.77,41.77,0,0,1,3.24-16.18,42.9,42.9,0,0,1,9.05-13.72,44.06,44.06,0,0,1,13.78-9.47,42.51,42.51,0,0,1,17.44-3.54,40.86,40.86,0,0,1,17.62,3.72,43.1,43.1,0,0,1,13.55,9.83,44.21,44.21,0,0,1,8.69,13.9,43.48,43.48,0,0,1,3,15.94,41.43,41.43,0,0,1-3.23,16.12,43.81,43.81,0,0,1-9,13.67,44.37,44.37,0,0,1-13.73,9.53A42,42,0,0,1,1051.6,190.52Zm-19.29-43.15a28.88,28.88,0,0,0,1.19,8.33,21.68,21.68,0,0,0,3.6,7.13,18.15,18.15,0,0,0,6.05,5,20.47,20.47,0,0,0,17.44-.06,17.74,17.74,0,0,0,6.06-5.16,22.24,22.24,0,0,0,3.47-7.25,30.5,30.5,0,0,0,1.14-8.27,29,29,0,0,0-1.2-8.33,20.74,20.74,0,0,0-3.65-7.07,18.46,18.46,0,0,0-6.12-4.91,20.65,20.65,0,0,0-17.26.06,17.71,17.71,0,0,0-6,5.09,21.67,21.67,0,0,0-3.54,7.19A30,30,0,0,0,1032.31,147.37Z"/><path class="cls-4" d="M1100.27,146.53a42.37,42.37,0,0,1,11.5-28.88,43.66,43.66,0,0,1,13.67-9.71,43.13,43.13,0,0,1,18.34-3.72q12.35,0,21.39,5.1a33.21,33.21,0,0,1,13.49,13.48l-17.86,12.71a15.05,15.05,0,0,0-3.18-5.16,16.23,16.23,0,0,0-4.37-3.23,18.76,18.76,0,0,0-5-1.68,27.2,27.2,0,0,0-5-.48,18,18,0,0,0-8.69,2,17.77,17.77,0,0,0-6,5.15,22.53,22.53,0,0,0-3.47,7.19,29.13,29.13,0,0,0-1.14,8,27.4,27.4,0,0,0,1.32,8.51,22.24,22.24,0,0,0,3.83,7.19,18.78,18.78,0,0,0,6.18,5,17.81,17.81,0,0,0,8.21,1.86,23.43,23.43,0,0,0,4.91-.54,18.3,18.3,0,0,0,4.86-1.8,16.53,16.53,0,0,0,4.19-3.24,14.32,14.32,0,0,0,2.94-4.85l19,11.38a24.12,24.12,0,0,1-5.81,8.4,37.13,37.13,0,0,1-8.87,6.23,46.5,46.5,0,0,1-10.67,3.83,49,49,0,0,1-11.08,1.32,39.5,39.5,0,0,1-17.32-3.77,44.06,44.06,0,0,1-13.55-10,45.7,45.7,0,0,1-8.81-14.15A43.38,43.38,0,0,1,1100.27,146.53Z"/><path class="cls-4" d="M1185.49,166.79q.36.24,1.56.84a22.51,22.51,0,0,0,3,1.2,36.17,36.17,0,0,0,4.14,1.08,24,24,0,0,0,4.85.48,12.82,12.82,0,0,0,6-1.2,7.79,7.79,0,0,0,3.48-3.9,21.8,21.8,0,0,0,1.56-6.95c.24-2.84.36-6.29.36-10.37V104.7h23.37V148a132.34,132.34,0,0,1-1.08,17.68,33.16,33.16,0,0,1-4.67,13.6,23.51,23.51,0,0,1-10.49,8.75q-6.9,3.12-18.52,3.12-10.79,0-18.46-5.27Z"/><path class="cls-4" d="M1267.35,104.7h21.34l29.48,85.1h-23.73l-5.15-16.66h-22.66l-5,16.66h-23.85Zm18.22,52.86L1278,131.19l-7.91,26.37Z"/><path class="cls-4" d="M1325.24,189.8V104.7h23.38v64.73h38.59V189.8Z"/><path class="cls-4" d="M1418.73,148V189.8h-23.37V104.7h18.22L1447.74,148V104.7h23.37v85.1h-18.58Z"/><path class="cls-4" d="M1507.79,104.7h21.34l29.48,85.1h-23.73l-5.15-16.66h-22.66l-5,16.66h-23.86ZM1526,157.56l-7.55-26.37-7.91,26.37Z"/></g></svg>